<svg width="18" height="23" viewBox="0 0 18 23" fill="none" xmlns="http://www.w3.org/2000/svg">
<path fill-rule="evenodd" clip-rule="evenodd" d="M15.75 12.9629C16.1642 12.9629 16.5 13.2987 16.5 13.7129L16.5 16.7129C16.5 17.3096 16.2629 17.8819 15.841 18.3039C15.419 18.7258 14.8467 18.9629 14.25 18.9629L3.75 18.9629C3.15326 18.9629 2.58097 18.7258 2.15901 18.3039C1.73705 17.8819 1.5 17.3096 1.5 16.7129L1.5 13.7129C1.5 13.2987 1.83579 12.9629 2.25 12.9629C2.66421 12.9629 3 13.2987 3 13.7129L3 16.7129C3 16.9118 3.07902 17.1026 3.21967 17.2432C3.36032 17.3839 3.55109 17.4629 3.75 17.4629L14.25 17.4629C14.4489 17.4629 14.6397 17.3839 14.7803 17.2432C14.921 17.1026 15 16.9118 15 16.7129L15 13.7129C15 13.2987 15.3358 12.9629 15.75 12.9629Z" fill="#05A8FF"/>
<path fill-rule="evenodd" clip-rule="evenodd" d="M13.2803 9.43256C13.5732 9.72545 13.5732 10.2003 13.2803 10.4932L9.53033 14.2432C9.23744 14.5361 8.76256 14.5361 8.46967 14.2432L4.71967 10.4932C4.42678 10.2003 4.42678 9.72545 4.71967 9.43256C5.01256 9.13967 5.48744 9.13967 5.78033 9.43256L9 12.6522L12.2197 9.43256C12.5126 9.13967 12.9874 9.13967 13.2803 9.43256Z" fill="#05A8FF"/>
<path fill-rule="evenodd" clip-rule="evenodd" d="M9 3.96289C9.41421 3.96289 9.75 4.29868 9.75 4.71289L9.75 13.7129C9.75 14.1271 9.41421 14.4629 9 14.4629C8.58579 14.4629 8.25 14.1271 8.25 13.7129L8.25 4.71289C8.25 4.29868 8.58579 3.96289 9 3.96289Z" fill="#05A8FF"/>
</svg>
