<svg width="14" height="15" viewBox="0 0 14 15" fill="none" xmlns="http://www.w3.org/2000/svg">
<g clip-path="url(#clip0_1_216)">
<path fill-rule="evenodd" clip-rule="evenodd" d="M2.26256 2.05877C2.59075 1.73058 3.03587 1.5462 3.5 1.5462H8.45833C8.61304 1.5462 8.76142 1.60766 8.87081 1.71706L12.0791 4.92539C12.1885 5.03479 12.25 5.18316 12.25 5.33787V12.6295C12.25 13.0937 12.0656 13.5388 11.7374 13.867C11.4092 14.1952 10.9641 14.3795 10.5 14.3795H2.33333C2.01117 14.3795 1.75 14.1184 1.75 13.7962C1.75 13.474 2.01117 13.2129 2.33333 13.2129H10.5C10.6547 13.2129 10.8031 13.1514 10.9125 13.042C11.0219 12.9326 11.0833 12.7842 11.0833 12.6295V5.57949L8.21671 2.71287H3.5C3.34529 2.71287 3.19692 2.77433 3.08752 2.88372C2.97812 2.99312 2.91667 3.14149 2.91667 3.2962V5.62954C2.91667 5.9517 2.6555 6.21287 2.33333 6.21287C2.01117 6.21287 1.75 5.9517 1.75 5.62954V3.2962C1.75 2.83207 1.93437 2.38696 2.26256 2.05877Z" fill="#05A8FF"/>
<path fill-rule="evenodd" clip-rule="evenodd" d="M8.16671 1.5462C8.48887 1.5462 8.75004 1.80737 8.75004 2.12954V5.0462H11.6667C11.9889 5.0462 12.25 5.30737 12.25 5.62954C12.25 5.9517 11.9889 6.21287 11.6667 6.21287H8.16671C7.84454 6.21287 7.58337 5.9517 7.58337 5.62954V2.12954C7.58337 1.80737 7.84454 1.5462 8.16671 1.5462Z" fill="#05A8FF"/>
<path fill-rule="evenodd" clip-rule="evenodd" d="M1.33748 7.84206C1.56529 7.61425 1.93463 7.61425 2.16244 7.84206L5.07911 10.7587C5.30691 10.9865 5.30691 11.3559 5.07911 11.5837C4.8513 11.8115 4.48195 11.8115 4.25415 11.5837L1.33748 8.66702C1.10967 8.43921 1.10967 8.06986 1.33748 7.84206Z" fill="#05A8FF"/>
<path fill-rule="evenodd" clip-rule="evenodd" d="M5.07911 7.84206C5.30691 8.06986 5.30691 8.43921 5.07911 8.66702L2.16244 11.5837C1.93463 11.8115 1.56529 11.8115 1.33748 11.5837C1.10967 11.3559 1.10967 10.9865 1.33748 10.7587L4.25415 7.84206C4.48195 7.61425 4.8513 7.61425 5.07911 7.84206Z" fill="#05A8FF"/>
</g>
<defs>
<clipPath id="clip0_1_216">
<rect width="14" height="14" fill="white" transform="translate(0 0.962891)"/>
</clipPath>
</defs>
</svg>
