<svg width="14" height="15" viewBox="0 0 14 15" fill="none" xmlns="http://www.w3.org/2000/svg">
<g clip-path="url(#clip0_1_210)">
<path fill-rule="evenodd" clip-rule="evenodd" d="M3.96252 2.00872C4.21939 1.75186 4.59362 1.5462 5.01667 1.5462H9.04167C9.19638 1.5462 9.34475 1.60766 9.45415 1.71706L12.0791 4.34206C12.1885 4.45145 12.25 4.59983 12.25 4.75454V10.5295C12.25 10.9526 12.0443 11.3268 11.7875 11.5837C11.5306 11.8406 11.1564 12.0462 10.7333 12.0462H5.01667C4.59362 12.0462 4.21939 11.8406 3.96252 11.5837C3.70565 11.3268 3.5 10.9526 3.5 10.5295V3.06287C3.5 2.63982 3.70565 2.26559 3.96252 2.00872ZM5.01667 2.71287C4.97305 2.71287 4.88061 2.74055 4.78748 2.83368C4.69435 2.92681 4.66667 3.01926 4.66667 3.06287V10.5295C4.66667 10.5732 4.69435 10.6656 4.78748 10.7587C4.88061 10.8519 4.97305 10.8795 5.01667 10.8795H10.7333C10.7769 10.8795 10.8694 10.8519 10.9625 10.7587C11.0557 10.6656 11.0833 10.5732 11.0833 10.5295V4.99616L8.80004 2.71287H5.01667Z" fill="#05A8FF"/>
<path fill-rule="evenodd" clip-rule="evenodd" d="M1.74996 4.81287C2.07213 4.81287 2.33329 5.07403 2.33329 5.3962V12.8629C2.33329 12.9065 2.36097 12.9989 2.45411 13.0921C2.54724 13.1852 2.63968 13.2129 2.68329 13.2129H8.39996C8.72213 13.2129 8.98329 13.474 8.98329 13.7962C8.98329 14.1184 8.72213 14.3795 8.39996 14.3795H2.68329C2.26024 14.3795 1.88602 14.1739 1.62915 13.917C1.37228 13.6601 1.16663 13.2859 1.16663 12.8629V5.3962C1.16663 5.07403 1.42779 4.81287 1.74996 4.81287Z" fill="#05A8FF"/>
<path fill-rule="evenodd" clip-rule="evenodd" d="M8.74996 1.5462C9.07213 1.5462 9.33329 1.80737 9.33329 2.12954V4.46287H11.6666C11.9888 4.46287 12.25 4.72404 12.25 5.0462C12.25 5.36837 11.9888 5.62954 11.6666 5.62954H8.74996C8.42779 5.62954 8.16663 5.36837 8.16663 5.0462V2.12954C8.16663 1.80737 8.42779 1.5462 8.74996 1.5462Z" fill="#05A8FF"/>
</g>
<defs>
<clipPath id="clip0_1_210">
<rect width="14" height="14" fill="white" transform="translate(0 0.962891)"/>
</clipPath>
</defs>
</svg>
